<mxfile host="65bd71144e">
    <diagram id="KBETprkx-jU7Gdpff5kD" name="Page-1">
        <mxGraphModel dx="434" dy="510" grid="1" gridSize="10" guides="1" tooltips="1" connect="1" arrows="1" fold="1" page="1" pageScale="1" pageWidth="827" pageHeight="1169" math="0" shadow="0">
            <root>
                <mxCell id="0"/>
                <mxCell id="1" parent="0"/>
                <mxCell id="15" value="5" style="ellipse;whiteSpace=wrap;html=1;aspect=fixed;" parent="1" vertex="1">
                    <mxGeometry x="320" y="190" width="30" height="30" as="geometry"/>
                </mxCell>
                <mxCell id="16" value="8_9" style="ellipse;whiteSpace=wrap;html=1;aspect=fixed;fillColor=#f8cecc;strokeColor=#b85450;" parent="1" vertex="1">
                    <mxGeometry x="368.78679656440363" y="238.78679656440363" width="30" height="30" as="geometry"/>
                </mxCell>
                <mxCell id="17" value="right" style="endArrow=none;html=1;exitX=0;exitY=0;exitDx=0;exitDy=0;" parent="1" source="16" target="15" edge="1">
                    <mxGeometry width="50" height="50" relative="1" as="geometry">
                        <mxPoint x="468.78679656440363" y="318.78679656440363" as="sourcePoint"/>
                        <mxPoint x="350" y="220" as="targetPoint"/>
                    </mxGeometry>
                </mxCell>
                <mxCell id="18" value="2_3" style="ellipse;whiteSpace=wrap;html=1;aspect=fixed;" parent="1" vertex="1">
                    <mxGeometry x="271.22" y="238.78679656440363" width="30" height="30" as="geometry"/>
                </mxCell>
                <mxCell id="19" value="left" style="endArrow=none;html=1;exitX=1;exitY=0;exitDx=0;exitDy=0;" parent="1" source="18" target="15" edge="1">
                    <mxGeometry width="50" height="50" relative="1" as="geometry">
                        <mxPoint x="331.22" y="298.78679656440363" as="sourcePoint"/>
                        <mxPoint x="320.00339828220183" y="220" as="targetPoint"/>
                    </mxGeometry>
                </mxCell>
                <mxCell id="26" value="5_9" style="ellipse;whiteSpace=wrap;html=1;aspect=fixed;" parent="1" vertex="1">
                    <mxGeometry x="688.78" y="190" width="30" height="30" as="geometry"/>
                </mxCell>
                <mxCell id="27" value="10" style="ellipse;whiteSpace=wrap;html=1;aspect=fixed;fillColor=#f8cecc;strokeColor=#b85450;" parent="1" vertex="1">
                    <mxGeometry x="759.9967965644036" y="238.78679656440363" width="30" height="30" as="geometry"/>
                </mxCell>
                <mxCell id="28" value="right" style="endArrow=none;html=1;exitX=0;exitY=0;exitDx=0;exitDy=0;" parent="1" source="27" target="26" edge="1">
                    <mxGeometry width="50" height="50" relative="1" as="geometry">
                        <mxPoint x="837.5667965644036" y="318.78679656440363" as="sourcePoint"/>
                        <mxPoint x="718.78" y="220" as="targetPoint"/>
                    </mxGeometry>
                </mxCell>
                <mxCell id="29" value="2_3" style="ellipse;whiteSpace=wrap;html=1;aspect=fixed;" parent="1" vertex="1">
                    <mxGeometry x="620" y="239.99679656440364" width="30" height="30" as="geometry"/>
                </mxCell>
                <mxCell id="30" value="left" style="endArrow=none;html=1;exitX=1;exitY=0;exitDx=0;exitDy=0;" parent="1" source="29" target="26" edge="1">
                    <mxGeometry width="50" height="50" relative="1" as="geometry">
                        <mxPoint x="700" y="298.78679656440363" as="sourcePoint"/>
                        <mxPoint x="688.7833982822018" y="220" as="targetPoint"/>
                    </mxGeometry>
                </mxCell>
                <mxCell id="31" value="8" style="ellipse;whiteSpace=wrap;html=1;aspect=fixed;fillColor=#f8cecc;strokeColor=#b85450;" parent="1" vertex="1">
                    <mxGeometry x="688.78" y="240" width="28.79" height="28.79" as="geometry"/>
                </mxCell>
                <mxCell id="32" value="middle" style="endArrow=none;html=1;entryX=0.5;entryY=1;entryDx=0;entryDy=0;" parent="1" source="31" target="26" edge="1">
                    <mxGeometry width="50" height="50" relative="1" as="geometry">
                        <mxPoint x="750" y="368.78679656440363" as="sourcePoint"/>
                        <mxPoint x="713.78" y="230" as="targetPoint"/>
                    </mxGeometry>
                </mxCell>
                <mxCell id="33" value="9" style="ellipse;whiteSpace=wrap;html=1;aspect=fixed;" parent="1" vertex="1">
                    <mxGeometry x="508.78" y="190" width="30" height="30" as="geometry"/>
                </mxCell>
                <mxCell id="34" value="10" style="ellipse;whiteSpace=wrap;html=1;aspect=fixed;fillColor=#f8cecc;strokeColor=#b85450;" parent="1" vertex="1">
                    <mxGeometry x="557.5667965644036" y="238.78679656440363" width="30" height="30" as="geometry"/>
                </mxCell>
                <mxCell id="35" value="right" style="endArrow=none;html=1;exitX=0;exitY=0;exitDx=0;exitDy=0;" parent="1" source="34" target="33" edge="1">
                    <mxGeometry width="50" height="50" relative="1" as="geometry">
                        <mxPoint x="657.5667965644036" y="318.78679656440363" as="sourcePoint"/>
                        <mxPoint x="538.78" y="220" as="targetPoint"/>
                    </mxGeometry>
                </mxCell>
                <mxCell id="36" value="8" style="ellipse;whiteSpace=wrap;html=1;aspect=fixed;fillColor=#f8cecc;strokeColor=#b85450;" parent="1" vertex="1">
                    <mxGeometry x="460" y="238.78679656440363" width="30" height="30" as="geometry"/>
                </mxCell>
                <mxCell id="37" value="left" style="endArrow=none;html=1;exitX=1;exitY=0;exitDx=0;exitDy=0;" parent="1" source="36" target="33" edge="1">
                    <mxGeometry width="50" height="50" relative="1" as="geometry">
                        <mxPoint x="520" y="298.78679656440363" as="sourcePoint"/>
                        <mxPoint x="508.7833982822018" y="220" as="targetPoint"/>
                    </mxGeometry>
                </mxCell>
                <mxCell id="56" value="插入 10" style="text;html=1;strokeColor=none;fillColor=none;align=center;verticalAlign=middle;whiteSpace=wrap;rounded=0;" parent="1" vertex="1">
                    <mxGeometry x="180" y="210" width="60" height="30" as="geometry"/>
                </mxCell>
                <mxCell id="58" value="5" style="ellipse;whiteSpace=wrap;html=1;aspect=fixed;" parent="1" vertex="1">
                    <mxGeometry x="320" y="81.21000000000001" width="30" height="30" as="geometry"/>
                </mxCell>
                <mxCell id="59" value="8_9" style="ellipse;whiteSpace=wrap;html=1;aspect=fixed;" parent="1" vertex="1">
                    <mxGeometry x="368.78679656440363" y="129.99679656440364" width="30" height="30" as="geometry"/>
                </mxCell>
                <mxCell id="60" value="right" style="endArrow=none;html=1;exitX=0;exitY=0;exitDx=0;exitDy=0;" parent="1" source="59" target="58" edge="1">
                    <mxGeometry width="50" height="50" relative="1" as="geometry">
                        <mxPoint x="468.78679656440363" y="209.99679656440364" as="sourcePoint"/>
                        <mxPoint x="350" y="111.21000000000001" as="targetPoint"/>
                    </mxGeometry>
                </mxCell>
                <mxCell id="61" value="2_3" style="ellipse;whiteSpace=wrap;html=1;aspect=fixed;fillColor=#f8cecc;strokeColor=#b85450;" parent="1" vertex="1">
                    <mxGeometry x="271.22" y="129.99679656440364" width="30" height="30" as="geometry"/>
                </mxCell>
                <mxCell id="62" value="left" style="endArrow=none;html=1;exitX=1;exitY=0;exitDx=0;exitDy=0;" parent="1" source="61" target="58" edge="1">
                    <mxGeometry width="50" height="50" relative="1" as="geometry">
                        <mxPoint x="331.22" y="189.99679656440364" as="sourcePoint"/>
                        <mxPoint x="320.00339828220183" y="111.21000000000001" as="targetPoint"/>
                    </mxGeometry>
                </mxCell>
                <mxCell id="63" value="3" style="ellipse;whiteSpace=wrap;html=1;aspect=fixed;" parent="1" vertex="1">
                    <mxGeometry x="508.78" y="81.21000000000001" width="30" height="30" as="geometry"/>
                </mxCell>
                <mxCell id="64" value="4" style="ellipse;whiteSpace=wrap;html=1;aspect=fixed;fillColor=#f8cecc;strokeColor=#b85450;" parent="1" vertex="1">
                    <mxGeometry x="557.5667965644036" y="129.99679656440364" width="30" height="30" as="geometry"/>
                </mxCell>
                <mxCell id="65" value="right" style="endArrow=none;html=1;exitX=0;exitY=0;exitDx=0;exitDy=0;" parent="1" source="64" target="63" edge="1">
                    <mxGeometry width="50" height="50" relative="1" as="geometry">
                        <mxPoint x="657.5667965644036" y="209.99679656440364" as="sourcePoint"/>
                        <mxPoint x="538.78" y="111.21000000000001" as="targetPoint"/>
                    </mxGeometry>
                </mxCell>
                <mxCell id="66" value="2" style="ellipse;whiteSpace=wrap;html=1;aspect=fixed;fillColor=#f8cecc;strokeColor=#b85450;" parent="1" vertex="1">
                    <mxGeometry x="460" y="129.99679656440364" width="30" height="30" as="geometry"/>
                </mxCell>
                <mxCell id="67" value="left" style="endArrow=none;html=1;exitX=1;exitY=0;exitDx=0;exitDy=0;" parent="1" source="66" target="63" edge="1">
                    <mxGeometry width="50" height="50" relative="1" as="geometry">
                        <mxPoint x="520" y="189.99679656440364" as="sourcePoint"/>
                        <mxPoint x="508.7833982822018" y="111.21000000000001" as="targetPoint"/>
                    </mxGeometry>
                </mxCell>
                <mxCell id="68" value="3_5" style="ellipse;whiteSpace=wrap;html=1;aspect=fixed;" parent="1" vertex="1">
                    <mxGeometry x="688.78" y="80.00000000000003" width="30" height="30" as="geometry"/>
                </mxCell>
                <mxCell id="69" value="8_9" style="ellipse;whiteSpace=wrap;html=1;aspect=fixed;" parent="1" vertex="1">
                    <mxGeometry x="759.9967965644036" y="128.78679656440366" width="30" height="30" as="geometry"/>
                </mxCell>
                <mxCell id="70" value="right" style="endArrow=none;html=1;exitX=0;exitY=0;exitDx=0;exitDy=0;" parent="1" source="69" target="68" edge="1">
                    <mxGeometry width="50" height="50" relative="1" as="geometry">
                        <mxPoint x="837.5667965644036" y="208.78679656440366" as="sourcePoint"/>
                        <mxPoint x="718.78" y="110.00000000000003" as="targetPoint"/>
                    </mxGeometry>
                </mxCell>
                <mxCell id="71" value="2" style="ellipse;whiteSpace=wrap;html=1;aspect=fixed;fillColor=#f8cecc;strokeColor=#b85450;" parent="1" vertex="1">
                    <mxGeometry x="620" y="129.99679656440364" width="30" height="30" as="geometry"/>
                </mxCell>
                <mxCell id="72" value="left" style="endArrow=none;html=1;exitX=1;exitY=0;exitDx=0;exitDy=0;" parent="1" source="71" target="68" edge="1">
                    <mxGeometry width="50" height="50" relative="1" as="geometry">
                        <mxPoint x="700" y="188.78679656440366" as="sourcePoint"/>
                        <mxPoint x="688.7833982822018" y="110.00000000000003" as="targetPoint"/>
                    </mxGeometry>
                </mxCell>
                <mxCell id="73" value="4" style="ellipse;whiteSpace=wrap;html=1;aspect=fixed;fillColor=#f8cecc;strokeColor=#b85450;" parent="1" vertex="1">
                    <mxGeometry x="688.78" y="130.00000000000003" width="28.79" height="28.79" as="geometry"/>
                </mxCell>
                <mxCell id="74" value="middle" style="endArrow=none;html=1;entryX=0.5;entryY=1;entryDx=0;entryDy=0;" parent="1" source="73" target="68" edge="1">
                    <mxGeometry width="50" height="50" relative="1" as="geometry">
                        <mxPoint x="750" y="258.78679656440363" as="sourcePoint"/>
                        <mxPoint x="713.78" y="120.00000000000003" as="targetPoint"/>
                    </mxGeometry>
                </mxCell>
                <mxCell id="75" value="插入 4" style="text;html=1;strokeColor=none;fillColor=none;align=center;verticalAlign=middle;whiteSpace=wrap;rounded=0;" parent="1" vertex="1">
                    <mxGeometry x="180" y="99.21000000000001" width="60" height="30" as="geometry"/>
                </mxCell>
            </root>
        </mxGraphModel>
    </diagram>
    <diagram id="sK8-H2taikzIBK3azGWd" name="Page-2">
        <mxGraphModel dx="434" dy="510" grid="1" gridSize="10" guides="1" tooltips="1" connect="1" arrows="1" fold="1" page="1" pageScale="1" pageWidth="827" pageHeight="1169" math="0" shadow="0">
            <root>
                <mxCell id="8X5JkMq_WImshGummqpX-0"/>
                <mxCell id="8X5JkMq_WImshGummqpX-1" parent="8X5JkMq_WImshGummqpX-0"/>
                <mxCell id="hnGPv5FANRjIXKApk4c4-0" value="4_9" style="ellipse;whiteSpace=wrap;html=1;aspect=fixed;" parent="8X5JkMq_WImshGummqpX-1" vertex="1">
                    <mxGeometry x="195.77999999999997" y="80.00000000000003" width="30" height="30" as="geometry"/>
                </mxCell>
                <mxCell id="hnGPv5FANRjIXKApk4c4-1" value="11_12" style="ellipse;whiteSpace=wrap;html=1;aspect=fixed;" parent="8X5JkMq_WImshGummqpX-1" vertex="1">
                    <mxGeometry x="266.99679656440355" y="128.78679656440366" width="30" height="30" as="geometry"/>
                </mxCell>
                <mxCell id="hnGPv5FANRjIXKApk4c4-2" value="right" style="endArrow=none;html=1;exitX=0;exitY=0;exitDx=0;exitDy=0;" parent="8X5JkMq_WImshGummqpX-1" source="hnGPv5FANRjIXKApk4c4-1" target="hnGPv5FANRjIXKApk4c4-0" edge="1">
                    <mxGeometry width="50" height="50" relative="1" as="geometry">
                        <mxPoint x="344.5667965644036" y="208.78679656440366" as="sourcePoint"/>
                        <mxPoint x="225.77999999999997" y="110.00000000000003" as="targetPoint"/>
                    </mxGeometry>
                </mxCell>
                <mxCell id="hnGPv5FANRjIXKApk4c4-3" value="1_2" style="ellipse;whiteSpace=wrap;html=1;aspect=fixed;fillColor=#f8cecc;strokeColor=#b85450;" parent="8X5JkMq_WImshGummqpX-1" vertex="1">
                    <mxGeometry x="127" y="129.99679656440364" width="30" height="30" as="geometry"/>
                </mxCell>
                <mxCell id="hnGPv5FANRjIXKApk4c4-4" value="left" style="endArrow=none;html=1;exitX=1;exitY=0;exitDx=0;exitDy=0;" parent="8X5JkMq_WImshGummqpX-1" source="hnGPv5FANRjIXKApk4c4-3" target="hnGPv5FANRjIXKApk4c4-0" edge="1">
                    <mxGeometry width="50" height="50" relative="1" as="geometry">
                        <mxPoint x="207" y="188.78679656440366" as="sourcePoint"/>
                        <mxPoint x="195.7833982822018" y="110.00000000000003" as="targetPoint"/>
                    </mxGeometry>
                </mxCell>
                <mxCell id="hnGPv5FANRjIXKApk4c4-5" value="5_7" style="ellipse;whiteSpace=wrap;html=1;aspect=fixed;" parent="8X5JkMq_WImshGummqpX-1" vertex="1">
                    <mxGeometry x="195.77999999999997" y="130.00000000000003" width="28.79" height="28.79" as="geometry"/>
                </mxCell>
                <mxCell id="hnGPv5FANRjIXKApk4c4-6" value="middle" style="endArrow=none;html=1;entryX=0.5;entryY=1;entryDx=0;entryDy=0;" parent="8X5JkMq_WImshGummqpX-1" source="hnGPv5FANRjIXKApk4c4-5" target="hnGPv5FANRjIXKApk4c4-0" edge="1">
                    <mxGeometry width="50" height="50" relative="1" as="geometry">
                        <mxPoint x="257" y="258.78679656440363" as="sourcePoint"/>
                        <mxPoint x="220.77999999999997" y="120.00000000000003" as="targetPoint"/>
                    </mxGeometry>
                </mxCell>
                <mxCell id="hnGPv5FANRjIXKApk4c4-21" value="插入 3" style="text;html=1;strokeColor=none;fillColor=none;align=center;verticalAlign=middle;whiteSpace=wrap;rounded=0;" parent="8X5JkMq_WImshGummqpX-1" vertex="1">
                    <mxGeometry x="37" y="100" width="60" height="30" as="geometry"/>
                </mxCell>
                <mxCell id="h8iB_27Rwrd-TUnYDNpY-0" value="2" style="ellipse;whiteSpace=wrap;html=1;aspect=fixed;" parent="8X5JkMq_WImshGummqpX-1" vertex="1">
                    <mxGeometry x="415.78" y="81.21000000000001" width="30" height="30" as="geometry"/>
                </mxCell>
                <mxCell id="h8iB_27Rwrd-TUnYDNpY-1" value="3" style="ellipse;whiteSpace=wrap;html=1;aspect=fixed;fillColor=#f8cecc;strokeColor=#b85450;" parent="8X5JkMq_WImshGummqpX-1" vertex="1">
                    <mxGeometry x="464.5667965644036" y="129.99679656440364" width="30" height="30" as="geometry"/>
                </mxCell>
                <mxCell id="h8iB_27Rwrd-TUnYDNpY-2" value="right" style="endArrow=none;html=1;exitX=0;exitY=0;exitDx=0;exitDy=0;" parent="8X5JkMq_WImshGummqpX-1" source="h8iB_27Rwrd-TUnYDNpY-1" target="h8iB_27Rwrd-TUnYDNpY-0" edge="1">
                    <mxGeometry width="50" height="50" relative="1" as="geometry">
                        <mxPoint x="564.5667965644036" y="209.99679656440364" as="sourcePoint"/>
                        <mxPoint x="445.78" y="111.21000000000001" as="targetPoint"/>
                    </mxGeometry>
                </mxCell>
                <mxCell id="h8iB_27Rwrd-TUnYDNpY-3" value="1" style="ellipse;whiteSpace=wrap;html=1;aspect=fixed;fillColor=#f8cecc;strokeColor=#b85450;" parent="8X5JkMq_WImshGummqpX-1" vertex="1">
                    <mxGeometry x="367" y="129.99679656440364" width="30" height="30" as="geometry"/>
                </mxCell>
                <mxCell id="h8iB_27Rwrd-TUnYDNpY-4" value="left" style="endArrow=none;html=1;exitX=1;exitY=0;exitDx=0;exitDy=0;" parent="8X5JkMq_WImshGummqpX-1" source="h8iB_27Rwrd-TUnYDNpY-3" target="h8iB_27Rwrd-TUnYDNpY-0" edge="1">
                    <mxGeometry width="50" height="50" relative="1" as="geometry">
                        <mxPoint x="427" y="189.99679656440364" as="sourcePoint"/>
                        <mxPoint x="415.7833982822018" y="111.21000000000001" as="targetPoint"/>
                    </mxGeometry>
                </mxCell>
                <mxCell id="h8iB_27Rwrd-TUnYDNpY-5" value="2" style="ellipse;whiteSpace=wrap;html=1;aspect=fixed;" parent="8X5JkMq_WImshGummqpX-1" vertex="1">
                    <mxGeometry x="595.78" y="81.21000000000001" width="30" height="30" as="geometry"/>
                </mxCell>
                <mxCell id="h8iB_27Rwrd-TUnYDNpY-6" value="3" style="ellipse;whiteSpace=wrap;html=1;aspect=fixed;fillColor=#f8cecc;strokeColor=#b85450;" parent="8X5JkMq_WImshGummqpX-1" vertex="1">
                    <mxGeometry x="644.5667965644036" y="128.78679656440363" width="30" height="30" as="geometry"/>
                </mxCell>
                <mxCell id="h8iB_27Rwrd-TUnYDNpY-7" value="right" style="endArrow=none;html=1;exitX=0;exitY=0;exitDx=0;exitDy=0;" parent="8X5JkMq_WImshGummqpX-1" source="h8iB_27Rwrd-TUnYDNpY-6" target="h8iB_27Rwrd-TUnYDNpY-5" edge="1">
                    <mxGeometry width="50" height="50" relative="1" as="geometry">
                        <mxPoint x="744.5667965644036" y="209.99679656440364" as="sourcePoint"/>
                        <mxPoint x="625.78" y="111.21000000000001" as="targetPoint"/>
                    </mxGeometry>
                </mxCell>
                <mxCell id="h8iB_27Rwrd-TUnYDNpY-8" value="1" style="ellipse;whiteSpace=wrap;html=1;aspect=fixed;fillColor=#f8cecc;strokeColor=#b85450;" parent="8X5JkMq_WImshGummqpX-1" vertex="1">
                    <mxGeometry x="547" y="129.99679656440364" width="30" height="30" as="geometry"/>
                </mxCell>
                <mxCell id="h8iB_27Rwrd-TUnYDNpY-9" value="left" style="endArrow=none;html=1;exitX=1;exitY=0;exitDx=0;exitDy=0;" parent="8X5JkMq_WImshGummqpX-1" source="h8iB_27Rwrd-TUnYDNpY-8" target="h8iB_27Rwrd-TUnYDNpY-5" edge="1">
                    <mxGeometry width="50" height="50" relative="1" as="geometry">
                        <mxPoint x="607" y="189.99679656440364" as="sourcePoint"/>
                        <mxPoint x="595.7833982822018" y="111.21000000000001" as="targetPoint"/>
                    </mxGeometry>
                </mxCell>
                <mxCell id="h8iB_27Rwrd-TUnYDNpY-10" value="4" style="ellipse;whiteSpace=wrap;html=1;aspect=fixed;" parent="8X5JkMq_WImshGummqpX-1" vertex="1">
                    <mxGeometry x="667" y="30.000000000000007" width="30" height="30" as="geometry"/>
                </mxCell>
                <mxCell id="h8iB_27Rwrd-TUnYDNpY-12" value="right" style="endArrow=none;html=1;" parent="8X5JkMq_WImshGummqpX-1" source="h8iB_27Rwrd-TUnYDNpY-15" target="h8iB_27Rwrd-TUnYDNpY-10" edge="1">
                    <mxGeometry width="50" height="50" relative="1" as="geometry">
                        <mxPoint x="761.3901948466053" y="94.39019484660525" as="sourcePoint"/>
                        <mxPoint x="674.56" y="62.21000000000001" as="targetPoint"/>
                    </mxGeometry>
                </mxCell>
                <mxCell id="h8iB_27Rwrd-TUnYDNpY-14" value="left" style="endArrow=none;html=1;" parent="8X5JkMq_WImshGummqpX-1" source="h8iB_27Rwrd-TUnYDNpY-5" target="h8iB_27Rwrd-TUnYDNpY-10" edge="1">
                    <mxGeometry width="50" height="50" relative="1" as="geometry">
                        <mxPoint x="621.3866017177984" y="85.39019484660525" as="sourcePoint"/>
                        <mxPoint x="644.5633982822018" y="62.21000000000001" as="targetPoint"/>
                    </mxGeometry>
                </mxCell>
                <mxCell id="h8iB_27Rwrd-TUnYDNpY-15" value="9" style="ellipse;whiteSpace=wrap;html=1;aspect=fixed;" parent="8X5JkMq_WImshGummqpX-1" vertex="1">
                    <mxGeometry x="737" y="80.00000000000003" width="30" height="30" as="geometry"/>
                </mxCell>
                <mxCell id="h8iB_27Rwrd-TUnYDNpY-16" value="11_12" style="ellipse;whiteSpace=wrap;html=1;aspect=fixed;" parent="8X5JkMq_WImshGummqpX-1" vertex="1">
                    <mxGeometry x="786.9967965644036" y="128.78679656440366" width="30" height="30" as="geometry"/>
                </mxCell>
                <mxCell id="h8iB_27Rwrd-TUnYDNpY-17" value="right" style="endArrow=none;html=1;exitX=0;exitY=0;exitDx=0;exitDy=0;" parent="8X5JkMq_WImshGummqpX-1" source="h8iB_27Rwrd-TUnYDNpY-16" target="h8iB_27Rwrd-TUnYDNpY-15" edge="1">
                    <mxGeometry width="50" height="50" relative="1" as="geometry">
                        <mxPoint x="905.7867965644036" y="218.78679656440366" as="sourcePoint"/>
                        <mxPoint x="787" y="120.00000000000003" as="targetPoint"/>
                    </mxGeometry>
                </mxCell>
                <mxCell id="h8iB_27Rwrd-TUnYDNpY-18" value="5_7" style="ellipse;whiteSpace=wrap;html=1;aspect=fixed;" parent="8X5JkMq_WImshGummqpX-1" vertex="1">
                    <mxGeometry x="697" y="131.21" width="28.79" height="28.79" as="geometry"/>
                </mxCell>
                <mxCell id="h8iB_27Rwrd-TUnYDNpY-19" value="left" style="endArrow=none;html=1;" parent="8X5JkMq_WImshGummqpX-1" source="h8iB_27Rwrd-TUnYDNpY-18" target="h8iB_27Rwrd-TUnYDNpY-15" edge="1">
                    <mxGeometry width="50" height="50" relative="1" as="geometry">
                        <mxPoint x="818.22" y="268.78679656440363" as="sourcePoint"/>
                        <mxPoint x="782" y="130.00000000000003" as="targetPoint"/>
                    </mxGeometry>
                </mxCell>
                <mxCell id="h8iB_27Rwrd-TUnYDNpY-21" value="4_9" style="ellipse;whiteSpace=wrap;html=1;aspect=fixed;" parent="8X5JkMq_WImshGummqpX-1" vertex="1">
                    <mxGeometry x="195.77999999999997" y="240.00000000000003" width="30" height="30" as="geometry"/>
                </mxCell>
                <mxCell id="h8iB_27Rwrd-TUnYDNpY-22" value="11_12" style="ellipse;whiteSpace=wrap;html=1;aspect=fixed;" parent="8X5JkMq_WImshGummqpX-1" vertex="1">
                    <mxGeometry x="266.99679656440355" y="288.78679656440363" width="30" height="30" as="geometry"/>
                </mxCell>
                <mxCell id="h8iB_27Rwrd-TUnYDNpY-23" value="right" style="endArrow=none;html=1;exitX=0;exitY=0;exitDx=0;exitDy=0;" parent="8X5JkMq_WImshGummqpX-1" source="h8iB_27Rwrd-TUnYDNpY-22" target="h8iB_27Rwrd-TUnYDNpY-21" edge="1">
                    <mxGeometry width="50" height="50" relative="1" as="geometry">
                        <mxPoint x="344.5667965644036" y="368.78679656440363" as="sourcePoint"/>
                        <mxPoint x="225.77999999999997" y="270" as="targetPoint"/>
                    </mxGeometry>
                </mxCell>
                <mxCell id="h8iB_27Rwrd-TUnYDNpY-24" value="1_2" style="ellipse;whiteSpace=wrap;html=1;aspect=fixed;" parent="8X5JkMq_WImshGummqpX-1" vertex="1">
                    <mxGeometry x="127" y="289.99679656440367" width="30" height="30" as="geometry"/>
                </mxCell>
                <mxCell id="h8iB_27Rwrd-TUnYDNpY-25" value="left" style="endArrow=none;html=1;exitX=1;exitY=0;exitDx=0;exitDy=0;" parent="8X5JkMq_WImshGummqpX-1" source="h8iB_27Rwrd-TUnYDNpY-24" target="h8iB_27Rwrd-TUnYDNpY-21" edge="1">
                    <mxGeometry width="50" height="50" relative="1" as="geometry">
                        <mxPoint x="207" y="348.78679656440363" as="sourcePoint"/>
                        <mxPoint x="195.7833982822018" y="270" as="targetPoint"/>
                    </mxGeometry>
                </mxCell>
                <mxCell id="h8iB_27Rwrd-TUnYDNpY-26" value="5_7" style="ellipse;whiteSpace=wrap;html=1;aspect=fixed;fillColor=#f8cecc;strokeColor=#b85450;" parent="8X5JkMq_WImshGummqpX-1" vertex="1">
                    <mxGeometry x="195.77999999999997" y="290" width="28.79" height="28.79" as="geometry"/>
                </mxCell>
                <mxCell id="h8iB_27Rwrd-TUnYDNpY-27" value="middle" style="endArrow=none;html=1;entryX=0.5;entryY=1;entryDx=0;entryDy=0;" parent="8X5JkMq_WImshGummqpX-1" source="h8iB_27Rwrd-TUnYDNpY-26" target="h8iB_27Rwrd-TUnYDNpY-21" edge="1">
                    <mxGeometry width="50" height="50" relative="1" as="geometry">
                        <mxPoint x="257" y="418.78679656440363" as="sourcePoint"/>
                        <mxPoint x="220.77999999999997" y="280" as="targetPoint"/>
                    </mxGeometry>
                </mxCell>
                <mxCell id="h8iB_27Rwrd-TUnYDNpY-28" value="插入 6" style="text;html=1;strokeColor=none;fillColor=none;align=center;verticalAlign=middle;whiteSpace=wrap;rounded=0;" parent="8X5JkMq_WImshGummqpX-1" vertex="1">
                    <mxGeometry x="37" y="260" width="60" height="30" as="geometry"/>
                </mxCell>
                <mxCell id="h8iB_27Rwrd-TUnYDNpY-29" value="6" style="ellipse;whiteSpace=wrap;html=1;aspect=fixed;" parent="8X5JkMq_WImshGummqpX-1" vertex="1">
                    <mxGeometry x="415.78" y="241.21" width="30" height="30" as="geometry"/>
                </mxCell>
                <mxCell id="h8iB_27Rwrd-TUnYDNpY-30" value="7" style="ellipse;whiteSpace=wrap;html=1;aspect=fixed;fillColor=#f8cecc;strokeColor=#b85450;" parent="8X5JkMq_WImshGummqpX-1" vertex="1">
                    <mxGeometry x="464.5667965644036" y="289.99679656440367" width="30" height="30" as="geometry"/>
                </mxCell>
                <mxCell id="h8iB_27Rwrd-TUnYDNpY-31" value="right" style="endArrow=none;html=1;exitX=0;exitY=0;exitDx=0;exitDy=0;" parent="8X5JkMq_WImshGummqpX-1" source="h8iB_27Rwrd-TUnYDNpY-30" target="h8iB_27Rwrd-TUnYDNpY-29" edge="1">
                    <mxGeometry width="50" height="50" relative="1" as="geometry">
                        <mxPoint x="564.5667965644036" y="369.99679656440367" as="sourcePoint"/>
                        <mxPoint x="445.78" y="271.21000000000004" as="targetPoint"/>
                    </mxGeometry>
                </mxCell>
                <mxCell id="h8iB_27Rwrd-TUnYDNpY-32" value="5" style="ellipse;whiteSpace=wrap;html=1;aspect=fixed;fillColor=#f8cecc;strokeColor=#b85450;" parent="8X5JkMq_WImshGummqpX-1" vertex="1">
                    <mxGeometry x="367" y="289.99679656440367" width="30" height="30" as="geometry"/>
                </mxCell>
                <mxCell id="h8iB_27Rwrd-TUnYDNpY-33" value="left" style="endArrow=none;html=1;exitX=1;exitY=0;exitDx=0;exitDy=0;" parent="8X5JkMq_WImshGummqpX-1" source="h8iB_27Rwrd-TUnYDNpY-32" target="h8iB_27Rwrd-TUnYDNpY-29" edge="1">
                    <mxGeometry width="50" height="50" relative="1" as="geometry">
                        <mxPoint x="427" y="349.99679656440367" as="sourcePoint"/>
                        <mxPoint x="415.7833982822018" y="271.21000000000004" as="targetPoint"/>
                    </mxGeometry>
                </mxCell>
                <mxCell id="h8iB_27Rwrd-TUnYDNpY-34" value="4" style="ellipse;whiteSpace=wrap;html=1;aspect=fixed;" parent="8X5JkMq_WImshGummqpX-1" vertex="1">
                    <mxGeometry x="595.78" y="241.21" width="30" height="30" as="geometry"/>
                </mxCell>
                <mxCell id="h8iB_27Rwrd-TUnYDNpY-35" value="5" style="ellipse;whiteSpace=wrap;html=1;aspect=fixed;fillColor=#f8cecc;strokeColor=#b85450;" parent="8X5JkMq_WImshGummqpX-1" vertex="1">
                    <mxGeometry x="644.5667965644036" y="288.78679656440363" width="30" height="30" as="geometry"/>
                </mxCell>
                <mxCell id="h8iB_27Rwrd-TUnYDNpY-36" value="right" style="endArrow=none;html=1;exitX=0;exitY=0;exitDx=0;exitDy=0;" parent="8X5JkMq_WImshGummqpX-1" source="h8iB_27Rwrd-TUnYDNpY-35" target="h8iB_27Rwrd-TUnYDNpY-34" edge="1">
                    <mxGeometry width="50" height="50" relative="1" as="geometry">
                        <mxPoint x="744.5667965644036" y="369.99679656440367" as="sourcePoint"/>
                        <mxPoint x="625.78" y="271.21000000000004" as="targetPoint"/>
                    </mxGeometry>
                </mxCell>
                <mxCell id="h8iB_27Rwrd-TUnYDNpY-37" value="1_2" style="ellipse;whiteSpace=wrap;html=1;aspect=fixed;" parent="8X5JkMq_WImshGummqpX-1" vertex="1">
                    <mxGeometry x="547" y="289.99679656440367" width="30" height="30" as="geometry"/>
                </mxCell>
                <mxCell id="h8iB_27Rwrd-TUnYDNpY-38" value="left" style="endArrow=none;html=1;exitX=1;exitY=0;exitDx=0;exitDy=0;" parent="8X5JkMq_WImshGummqpX-1" source="h8iB_27Rwrd-TUnYDNpY-37" target="h8iB_27Rwrd-TUnYDNpY-34" edge="1">
                    <mxGeometry width="50" height="50" relative="1" as="geometry">
                        <mxPoint x="607" y="349.99679656440367" as="sourcePoint"/>
                        <mxPoint x="595.7833982822018" y="271.21000000000004" as="targetPoint"/>
                    </mxGeometry>
                </mxCell>
                <mxCell id="h8iB_27Rwrd-TUnYDNpY-39" value="6" style="ellipse;whiteSpace=wrap;html=1;aspect=fixed;" parent="8X5JkMq_WImshGummqpX-1" vertex="1">
                    <mxGeometry x="667" y="190" width="30" height="30" as="geometry"/>
                </mxCell>
                <mxCell id="h8iB_27Rwrd-TUnYDNpY-40" value="right" style="endArrow=none;html=1;" parent="8X5JkMq_WImshGummqpX-1" source="h8iB_27Rwrd-TUnYDNpY-42" target="h8iB_27Rwrd-TUnYDNpY-39" edge="1">
                    <mxGeometry width="50" height="50" relative="1" as="geometry">
                        <mxPoint x="761.3901948466053" y="254.39019484660525" as="sourcePoint"/>
                        <mxPoint x="674.56" y="222.21" as="targetPoint"/>
                    </mxGeometry>
                </mxCell>
                <mxCell id="h8iB_27Rwrd-TUnYDNpY-41" value="left" style="endArrow=none;html=1;" parent="8X5JkMq_WImshGummqpX-1" source="h8iB_27Rwrd-TUnYDNpY-34" target="h8iB_27Rwrd-TUnYDNpY-39" edge="1">
                    <mxGeometry width="50" height="50" relative="1" as="geometry">
                        <mxPoint x="621.3866017177984" y="245.39019484660525" as="sourcePoint"/>
                        <mxPoint x="644.5633982822018" y="222.21" as="targetPoint"/>
                    </mxGeometry>
                </mxCell>
                <mxCell id="h8iB_27Rwrd-TUnYDNpY-42" value="9" style="ellipse;whiteSpace=wrap;html=1;aspect=fixed;" parent="8X5JkMq_WImshGummqpX-1" vertex="1">
                    <mxGeometry x="737" y="240.00000000000003" width="30" height="30" as="geometry"/>
                </mxCell>
                <mxCell id="h8iB_27Rwrd-TUnYDNpY-43" value="11_12" style="ellipse;whiteSpace=wrap;html=1;aspect=fixed;" parent="8X5JkMq_WImshGummqpX-1" vertex="1">
                    <mxGeometry x="786.9967965644036" y="288.78679656440363" width="30" height="30" as="geometry"/>
                </mxCell>
                <mxCell id="h8iB_27Rwrd-TUnYDNpY-44" value="right" style="endArrow=none;html=1;exitX=0;exitY=0;exitDx=0;exitDy=0;" parent="8X5JkMq_WImshGummqpX-1" source="h8iB_27Rwrd-TUnYDNpY-43" target="h8iB_27Rwrd-TUnYDNpY-42" edge="1">
                    <mxGeometry width="50" height="50" relative="1" as="geometry">
                        <mxPoint x="905.7867965644036" y="378.78679656440363" as="sourcePoint"/>
                        <mxPoint x="787" y="280" as="targetPoint"/>
                    </mxGeometry>
                </mxCell>
                <mxCell id="h8iB_27Rwrd-TUnYDNpY-45" value="7" style="ellipse;whiteSpace=wrap;html=1;aspect=fixed;fillColor=#f8cecc;strokeColor=#b85450;" parent="8X5JkMq_WImshGummqpX-1" vertex="1">
                    <mxGeometry x="697" y="291.21000000000004" width="28.79" height="28.79" as="geometry"/>
                </mxCell>
                <mxCell id="h8iB_27Rwrd-TUnYDNpY-46" value="left" style="endArrow=none;html=1;" parent="8X5JkMq_WImshGummqpX-1" source="h8iB_27Rwrd-TUnYDNpY-45" target="h8iB_27Rwrd-TUnYDNpY-42" edge="1">
                    <mxGeometry width="50" height="50" relative="1" as="geometry">
                        <mxPoint x="818.22" y="428.78679656440363" as="sourcePoint"/>
                        <mxPoint x="782" y="290" as="targetPoint"/>
                    </mxGeometry>
                </mxCell>
                <mxCell id="h8iB_27Rwrd-TUnYDNpY-47" value="4_9" style="ellipse;whiteSpace=wrap;html=1;aspect=fixed;" parent="8X5JkMq_WImshGummqpX-1" vertex="1">
                    <mxGeometry x="195.77999999999997" y="410" width="30" height="30" as="geometry"/>
                </mxCell>
                <mxCell id="h8iB_27Rwrd-TUnYDNpY-48" value="11_12" style="ellipse;whiteSpace=wrap;html=1;aspect=fixed;fillColor=#f8cecc;strokeColor=#b85450;" parent="8X5JkMq_WImshGummqpX-1" vertex="1">
                    <mxGeometry x="266.99679656440355" y="458.78679656440363" width="30" height="30" as="geometry"/>
                </mxCell>
                <mxCell id="h8iB_27Rwrd-TUnYDNpY-49" value="right" style="endArrow=none;html=1;exitX=0;exitY=0;exitDx=0;exitDy=0;" parent="8X5JkMq_WImshGummqpX-1" source="h8iB_27Rwrd-TUnYDNpY-48" target="h8iB_27Rwrd-TUnYDNpY-47" edge="1">
                    <mxGeometry width="50" height="50" relative="1" as="geometry">
                        <mxPoint x="344.5667965644036" y="538.7867965644036" as="sourcePoint"/>
                        <mxPoint x="225.77999999999997" y="440" as="targetPoint"/>
                    </mxGeometry>
                </mxCell>
                <mxCell id="h8iB_27Rwrd-TUnYDNpY-50" value="1_2" style="ellipse;whiteSpace=wrap;html=1;aspect=fixed;" parent="8X5JkMq_WImshGummqpX-1" vertex="1">
                    <mxGeometry x="127" y="459.99679656440367" width="30" height="30" as="geometry"/>
                </mxCell>
                <mxCell id="h8iB_27Rwrd-TUnYDNpY-51" value="left" style="endArrow=none;html=1;exitX=1;exitY=0;exitDx=0;exitDy=0;" parent="8X5JkMq_WImshGummqpX-1" source="h8iB_27Rwrd-TUnYDNpY-50" target="h8iB_27Rwrd-TUnYDNpY-47" edge="1">
                    <mxGeometry width="50" height="50" relative="1" as="geometry">
                        <mxPoint x="207" y="518.7867965644036" as="sourcePoint"/>
                        <mxPoint x="195.7833982822018" y="440" as="targetPoint"/>
                    </mxGeometry>
                </mxCell>
                <mxCell id="h8iB_27Rwrd-TUnYDNpY-52" value="5_7" style="ellipse;whiteSpace=wrap;html=1;aspect=fixed;" parent="8X5JkMq_WImshGummqpX-1" vertex="1">
                    <mxGeometry x="195.77999999999997" y="460" width="28.79" height="28.79" as="geometry"/>
                </mxCell>
                <mxCell id="h8iB_27Rwrd-TUnYDNpY-53" value="middle" style="endArrow=none;html=1;entryX=0.5;entryY=1;entryDx=0;entryDy=0;" parent="8X5JkMq_WImshGummqpX-1" source="h8iB_27Rwrd-TUnYDNpY-52" target="h8iB_27Rwrd-TUnYDNpY-47" edge="1">
                    <mxGeometry width="50" height="50" relative="1" as="geometry">
                        <mxPoint x="257" y="588.7867965644036" as="sourcePoint"/>
                        <mxPoint x="220.77999999999997" y="450" as="targetPoint"/>
                    </mxGeometry>
                </mxCell>
                <mxCell id="h8iB_27Rwrd-TUnYDNpY-54" value="插入 10" style="text;html=1;strokeColor=none;fillColor=none;align=center;verticalAlign=middle;whiteSpace=wrap;rounded=0;" parent="8X5JkMq_WImshGummqpX-1" vertex="1">
                    <mxGeometry x="37" y="430" width="60" height="30" as="geometry"/>
                </mxCell>
                <mxCell id="h8iB_27Rwrd-TUnYDNpY-55" value="11" style="ellipse;whiteSpace=wrap;html=1;aspect=fixed;" parent="8X5JkMq_WImshGummqpX-1" vertex="1">
                    <mxGeometry x="415.78" y="411.21000000000004" width="30" height="30" as="geometry"/>
                </mxCell>
                <mxCell id="h8iB_27Rwrd-TUnYDNpY-56" value="12" style="ellipse;whiteSpace=wrap;html=1;aspect=fixed;fillColor=#f8cecc;strokeColor=#b85450;" parent="8X5JkMq_WImshGummqpX-1" vertex="1">
                    <mxGeometry x="464.5667965644036" y="459.99679656440367" width="30" height="30" as="geometry"/>
                </mxCell>
                <mxCell id="h8iB_27Rwrd-TUnYDNpY-57" value="right" style="endArrow=none;html=1;exitX=0;exitY=0;exitDx=0;exitDy=0;" parent="8X5JkMq_WImshGummqpX-1" source="h8iB_27Rwrd-TUnYDNpY-56" target="h8iB_27Rwrd-TUnYDNpY-55" edge="1">
                    <mxGeometry width="50" height="50" relative="1" as="geometry">
                        <mxPoint x="564.5667965644036" y="539.9967965644037" as="sourcePoint"/>
                        <mxPoint x="445.78" y="441.21000000000004" as="targetPoint"/>
                    </mxGeometry>
                </mxCell>
                <mxCell id="h8iB_27Rwrd-TUnYDNpY-58" value="10" style="ellipse;whiteSpace=wrap;html=1;aspect=fixed;fillColor=#f8cecc;strokeColor=#b85450;" parent="8X5JkMq_WImshGummqpX-1" vertex="1">
                    <mxGeometry x="367" y="459.99679656440367" width="30" height="30" as="geometry"/>
                </mxCell>
                <mxCell id="h8iB_27Rwrd-TUnYDNpY-59" value="left" style="endArrow=none;html=1;exitX=1;exitY=0;exitDx=0;exitDy=0;" parent="8X5JkMq_WImshGummqpX-1" source="h8iB_27Rwrd-TUnYDNpY-58" target="h8iB_27Rwrd-TUnYDNpY-55" edge="1">
                    <mxGeometry width="50" height="50" relative="1" as="geometry">
                        <mxPoint x="427" y="519.9967965644037" as="sourcePoint"/>
                        <mxPoint x="415.7833982822018" y="441.21000000000004" as="targetPoint"/>
                    </mxGeometry>
                </mxCell>
                <mxCell id="h8iB_27Rwrd-TUnYDNpY-60" value="4" style="ellipse;whiteSpace=wrap;html=1;aspect=fixed;" parent="8X5JkMq_WImshGummqpX-1" vertex="1">
                    <mxGeometry x="595.78" y="411.21000000000004" width="30" height="30" as="geometry"/>
                </mxCell>
                <mxCell id="h8iB_27Rwrd-TUnYDNpY-61" value="5_7" style="ellipse;whiteSpace=wrap;html=1;aspect=fixed;" parent="8X5JkMq_WImshGummqpX-1" vertex="1">
                    <mxGeometry x="644.5667965644036" y="458.78679656440363" width="30" height="30" as="geometry"/>
                </mxCell>
                <mxCell id="h8iB_27Rwrd-TUnYDNpY-62" value="right" style="endArrow=none;html=1;exitX=0;exitY=0;exitDx=0;exitDy=0;" parent="8X5JkMq_WImshGummqpX-1" source="h8iB_27Rwrd-TUnYDNpY-61" target="h8iB_27Rwrd-TUnYDNpY-60" edge="1">
                    <mxGeometry width="50" height="50" relative="1" as="geometry">
                        <mxPoint x="744.5667965644036" y="539.9967965644037" as="sourcePoint"/>
                        <mxPoint x="625.78" y="441.21000000000004" as="targetPoint"/>
                    </mxGeometry>
                </mxCell>
                <mxCell id="h8iB_27Rwrd-TUnYDNpY-63" value="1_2" style="ellipse;whiteSpace=wrap;html=1;aspect=fixed;" parent="8X5JkMq_WImshGummqpX-1" vertex="1">
                    <mxGeometry x="547" y="459.99679656440367" width="30" height="30" as="geometry"/>
                </mxCell>
                <mxCell id="h8iB_27Rwrd-TUnYDNpY-64" value="left" style="endArrow=none;html=1;exitX=1;exitY=0;exitDx=0;exitDy=0;" parent="8X5JkMq_WImshGummqpX-1" source="h8iB_27Rwrd-TUnYDNpY-63" target="h8iB_27Rwrd-TUnYDNpY-60" edge="1">
                    <mxGeometry width="50" height="50" relative="1" as="geometry">
                        <mxPoint x="607" y="519.9967965644037" as="sourcePoint"/>
                        <mxPoint x="595.7833982822018" y="441.21000000000004" as="targetPoint"/>
                    </mxGeometry>
                </mxCell>
                <mxCell id="h8iB_27Rwrd-TUnYDNpY-65" value="9" style="ellipse;whiteSpace=wrap;html=1;aspect=fixed;" parent="8X5JkMq_WImshGummqpX-1" vertex="1">
                    <mxGeometry x="667" y="360" width="30" height="30" as="geometry"/>
                </mxCell>
                <mxCell id="h8iB_27Rwrd-TUnYDNpY-66" value="right" style="endArrow=none;html=1;" parent="8X5JkMq_WImshGummqpX-1" source="h8iB_27Rwrd-TUnYDNpY-68" target="h8iB_27Rwrd-TUnYDNpY-65" edge="1">
                    <mxGeometry width="50" height="50" relative="1" as="geometry">
                        <mxPoint x="761.3901948466053" y="424.39019484660525" as="sourcePoint"/>
                        <mxPoint x="674.56" y="392.21000000000004" as="targetPoint"/>
                    </mxGeometry>
                </mxCell>
                <mxCell id="h8iB_27Rwrd-TUnYDNpY-67" value="left" style="endArrow=none;html=1;" parent="8X5JkMq_WImshGummqpX-1" source="h8iB_27Rwrd-TUnYDNpY-60" target="h8iB_27Rwrd-TUnYDNpY-65" edge="1">
                    <mxGeometry width="50" height="50" relative="1" as="geometry">
                        <mxPoint x="621.3866017177984" y="415.39019484660525" as="sourcePoint"/>
                        <mxPoint x="644.5633982822018" y="392.21000000000004" as="targetPoint"/>
                    </mxGeometry>
                </mxCell>
                <mxCell id="h8iB_27Rwrd-TUnYDNpY-68" value="11" style="ellipse;whiteSpace=wrap;html=1;aspect=fixed;" parent="8X5JkMq_WImshGummqpX-1" vertex="1">
                    <mxGeometry x="737" y="410" width="30" height="30" as="geometry"/>
                </mxCell>
                <mxCell id="h8iB_27Rwrd-TUnYDNpY-69" value="12" style="ellipse;whiteSpace=wrap;html=1;aspect=fixed;fillColor=#f8cecc;strokeColor=#b85450;" parent="8X5JkMq_WImshGummqpX-1" vertex="1">
                    <mxGeometry x="786.9967965644036" y="458.78679656440363" width="30" height="30" as="geometry"/>
                </mxCell>
                <mxCell id="h8iB_27Rwrd-TUnYDNpY-70" value="right" style="endArrow=none;html=1;exitX=0;exitY=0;exitDx=0;exitDy=0;" parent="8X5JkMq_WImshGummqpX-1" source="h8iB_27Rwrd-TUnYDNpY-69" target="h8iB_27Rwrd-TUnYDNpY-68" edge="1">
                    <mxGeometry width="50" height="50" relative="1" as="geometry">
                        <mxPoint x="905.7867965644036" y="548.7867965644036" as="sourcePoint"/>
                        <mxPoint x="787" y="450" as="targetPoint"/>
                    </mxGeometry>
                </mxCell>
                <mxCell id="h8iB_27Rwrd-TUnYDNpY-71" value="10" style="ellipse;whiteSpace=wrap;html=1;aspect=fixed;fillColor=#f8cecc;strokeColor=#b85450;" parent="8X5JkMq_WImshGummqpX-1" vertex="1">
                    <mxGeometry x="697" y="461.21000000000004" width="28.79" height="28.79" as="geometry"/>
                </mxCell>
                <mxCell id="h8iB_27Rwrd-TUnYDNpY-72" value="left" style="endArrow=none;html=1;" parent="8X5JkMq_WImshGummqpX-1" source="h8iB_27Rwrd-TUnYDNpY-71" target="h8iB_27Rwrd-TUnYDNpY-68" edge="1">
                    <mxGeometry width="50" height="50" relative="1" as="geometry">
                        <mxPoint x="818.22" y="598.7867965644036" as="sourcePoint"/>
                        <mxPoint x="782" y="460" as="targetPoint"/>
                    </mxGeometry>
                </mxCell>
            </root>
        </mxGraphModel>
    </diagram>
    <diagram id="uu8e27RNDxl9eiBUFqAL" name="Page-3">
        <mxGraphModel dx="921" dy="729" grid="1" gridSize="10" guides="1" tooltips="1" connect="1" arrows="1" fold="1" page="1" pageScale="1" pageWidth="827" pageHeight="1169" math="0" shadow="0">
            <root>
                <mxCell id="B7eyNhPYpgDCMDLuY0uI-0"/>
                <mxCell id="B7eyNhPYpgDCMDLuY0uI-1" parent="B7eyNhPYpgDCMDLuY0uI-0"/>
                <mxCell id="B7eyNhPYpgDCMDLuY0uI-2" value="3_5" style="ellipse;whiteSpace=wrap;html=1;aspect=fixed;" parent="B7eyNhPYpgDCMDLuY0uI-1" vertex="1">
                    <mxGeometry x="188.77999999999997" y="80.00000000000003" width="30" height="30" as="geometry"/>
                </mxCell>
                <mxCell id="B7eyNhPYpgDCMDLuY0uI-3" value="9" style="ellipse;whiteSpace=wrap;html=1;aspect=fixed;fillColor=#647687;fontColor=#ffffff;strokeColor=#314354;" parent="B7eyNhPYpgDCMDLuY0uI-1" vertex="1">
                    <mxGeometry x="259.99679656440355" y="128.78679656440366" width="30" height="30" as="geometry"/>
                </mxCell>
                <mxCell id="B7eyNhPYpgDCMDLuY0uI-4" value="right" style="endArrow=none;html=1;exitX=0;exitY=0;exitDx=0;exitDy=0;" parent="B7eyNhPYpgDCMDLuY0uI-1" source="B7eyNhPYpgDCMDLuY0uI-3" target="B7eyNhPYpgDCMDLuY0uI-2" edge="1">
                    <mxGeometry width="50" height="50" relative="1" as="geometry">
                        <mxPoint x="337.5667965644036" y="208.78679656440366" as="sourcePoint"/>
                        <mxPoint x="218.77999999999997" y="110.00000000000003" as="targetPoint"/>
                    </mxGeometry>
                </mxCell>
                <mxCell id="B7eyNhPYpgDCMDLuY0uI-5" value="2" style="ellipse;whiteSpace=wrap;html=1;aspect=fixed;fillColor=#647687;strokeColor=#314354;fontColor=#ffffff;" parent="B7eyNhPYpgDCMDLuY0uI-1" vertex="1">
                    <mxGeometry x="120" y="129.99679656440364" width="30" height="30" as="geometry"/>
                </mxCell>
                <mxCell id="B7eyNhPYpgDCMDLuY0uI-6" value="left" style="endArrow=none;html=1;exitX=1;exitY=0;exitDx=0;exitDy=0;" parent="B7eyNhPYpgDCMDLuY0uI-1" source="B7eyNhPYpgDCMDLuY0uI-5" target="B7eyNhPYpgDCMDLuY0uI-2" edge="1">
                    <mxGeometry width="50" height="50" relative="1" as="geometry">
                        <mxPoint x="200" y="188.78679656440366" as="sourcePoint"/>
                        <mxPoint x="188.7833982822018" y="110.00000000000003" as="targetPoint"/>
                    </mxGeometry>
                </mxCell>
                <mxCell id="B7eyNhPYpgDCMDLuY0uI-7" value="4" style="ellipse;whiteSpace=wrap;html=1;aspect=fixed;fillColor=#647687;strokeColor=#314354;fontColor=#ffffff;" parent="B7eyNhPYpgDCMDLuY0uI-1" vertex="1">
                    <mxGeometry x="188.77999999999997" y="130.00000000000003" width="28.79" height="28.79" as="geometry"/>
                </mxCell>
                <mxCell id="B7eyNhPYpgDCMDLuY0uI-8" value="middle" style="endArrow=none;html=1;entryX=0.5;entryY=1;entryDx=0;entryDy=0;" parent="B7eyNhPYpgDCMDLuY0uI-1" source="B7eyNhPYpgDCMDLuY0uI-7" target="B7eyNhPYpgDCMDLuY0uI-2" edge="1">
                    <mxGeometry width="50" height="50" relative="1" as="geometry">
                        <mxPoint x="250" y="258.78679656440363" as="sourcePoint"/>
                        <mxPoint x="213.77999999999997" y="120.00000000000003" as="targetPoint"/>
                    </mxGeometry>
                </mxCell>
                <mxCell id="B7eyNhPYpgDCMDLuY0uI-9" value="3" style="ellipse;whiteSpace=wrap;html=1;aspect=fixed;fillColor=#f8cecc;strokeColor=#b85450;" parent="B7eyNhPYpgDCMDLuY0uI-1" vertex="1">
                    <mxGeometry x="378.78" y="80.00000000000003" width="30" height="30" as="geometry"/>
                </mxCell>
                <mxCell id="B7eyNhPYpgDCMDLuY0uI-10" value="9" style="ellipse;whiteSpace=wrap;html=1;aspect=fixed;fillColor=#647687;fontColor=#ffffff;strokeColor=#314354;" parent="B7eyNhPYpgDCMDLuY0uI-1" vertex="1">
                    <mxGeometry x="519.9967965644036" y="127.99679656440367" width="30" height="30" as="geometry"/>
                </mxCell>
                <mxCell id="B7eyNhPYpgDCMDLuY0uI-11" value="right" style="endArrow=none;html=1;exitX=0;exitY=0;exitDx=0;exitDy=0;" parent="B7eyNhPYpgDCMDLuY0uI-1" source="B7eyNhPYpgDCMDLuY0uI-10" target="B7eyNhPYpgDCMDLuY0uI-18" edge="1">
                    <mxGeometry width="50" height="50" relative="1" as="geometry">
                        <mxPoint x="537.5667965644036" y="258.78679656440363" as="sourcePoint"/>
                        <mxPoint x="418.78" y="160.00000000000003" as="targetPoint"/>
                    </mxGeometry>
                </mxCell>
                <mxCell id="B7eyNhPYpgDCMDLuY0uI-12" value="2" style="ellipse;whiteSpace=wrap;html=1;aspect=fixed;fillColor=#647687;strokeColor=#314354;fontColor=#ffffff;" parent="B7eyNhPYpgDCMDLuY0uI-1" vertex="1">
                    <mxGeometry x="330" y="127.57679656440364" width="30" height="30" as="geometry"/>
                </mxCell>
                <mxCell id="B7eyNhPYpgDCMDLuY0uI-13" value="left" style="endArrow=none;html=1;exitX=1;exitY=0;exitDx=0;exitDy=0;" parent="B7eyNhPYpgDCMDLuY0uI-1" source="B7eyNhPYpgDCMDLuY0uI-12" target="B7eyNhPYpgDCMDLuY0uI-9" edge="1">
                    <mxGeometry width="50" height="50" relative="1" as="geometry">
                        <mxPoint x="390" y="188.78679656440366" as="sourcePoint"/>
                        <mxPoint x="378.7833982822018" y="110.00000000000003" as="targetPoint"/>
                    </mxGeometry>
                </mxCell>
                <mxCell id="B7eyNhPYpgDCMDLuY0uI-14" value="4" style="ellipse;whiteSpace=wrap;html=1;aspect=fixed;fillColor=#647687;strokeColor=#314354;fontColor=#ffffff;" parent="B7eyNhPYpgDCMDLuY0uI-1" vertex="1">
                    <mxGeometry x="421.21" y="128.79000000000002" width="28.79" height="28.79" as="geometry"/>
                </mxCell>
                <mxCell id="B7eyNhPYpgDCMDLuY0uI-15" value="right" style="endArrow=none;html=1;" parent="B7eyNhPYpgDCMDLuY0uI-1" source="B7eyNhPYpgDCMDLuY0uI-14" target="B7eyNhPYpgDCMDLuY0uI-9" edge="1">
                    <mxGeometry width="50" height="50" relative="1" as="geometry">
                        <mxPoint x="440" y="258.78679656440363" as="sourcePoint"/>
                        <mxPoint x="403.78" y="120.00000000000003" as="targetPoint"/>
                    </mxGeometry>
                </mxCell>
                <mxCell id="B7eyNhPYpgDCMDLuY0uI-18" value="5" style="ellipse;whiteSpace=wrap;html=1;aspect=fixed;fillColor=#647687;fontColor=#ffffff;strokeColor=#314354;" parent="B7eyNhPYpgDCMDLuY0uI-1" vertex="1">
                    <mxGeometry x="460" y="80.00000000000003" width="30" height="30" as="geometry"/>
                </mxCell>
                <mxCell id="B7eyNhPYpgDCMDLuY0uI-19" value="left" style="endArrow=none;html=1;" parent="B7eyNhPYpgDCMDLuY0uI-1" source="B7eyNhPYpgDCMDLuY0uI-9" target="B7eyNhPYpgDCMDLuY0uI-18" edge="1">
                    <mxGeometry width="50" height="50" relative="1" as="geometry">
                        <mxPoint x="406.8266017177982" y="84.39019484660548" as="sourcePoint"/>
                        <mxPoint x="450.00339828220183" y="60.00000000000003" as="targetPoint"/>
                    </mxGeometry>
                </mxCell>
                <mxCell id="B7eyNhPYpgDCMDLuY0uI-24" value="3" style="ellipse;whiteSpace=wrap;html=1;aspect=fixed;fillColor=#f8cecc;strokeColor=#b85450;" parent="B7eyNhPYpgDCMDLuY0uI-1" vertex="1">
                    <mxGeometry x="628.78" y="80.00000000000003" width="30" height="30" as="geometry"/>
                </mxCell>
                <mxCell id="B7eyNhPYpgDCMDLuY0uI-25" value="9" style="ellipse;whiteSpace=wrap;html=1;aspect=fixed;fillColor=#647687;fontColor=#ffffff;strokeColor=#314354;" parent="B7eyNhPYpgDCMDLuY0uI-1" vertex="1">
                    <mxGeometry x="749.9967965644036" y="79.99679656440367" width="30" height="30" as="geometry"/>
                </mxCell>
                <mxCell id="B7eyNhPYpgDCMDLuY0uI-26" value="right" style="endArrow=none;html=1;exitX=0;exitY=0;exitDx=0;exitDy=0;" parent="B7eyNhPYpgDCMDLuY0uI-1" source="B7eyNhPYpgDCMDLuY0uI-25" target="B7eyNhPYpgDCMDLuY0uI-31" edge="1">
                    <mxGeometry width="50" height="50" relative="1" as="geometry">
                        <mxPoint x="767.5667965644036" y="210.78679656440363" as="sourcePoint"/>
                        <mxPoint x="648.78" y="112.00000000000003" as="targetPoint"/>
                    </mxGeometry>
                </mxCell>
                <mxCell id="B7eyNhPYpgDCMDLuY0uI-27" value="2" style="ellipse;whiteSpace=wrap;html=1;aspect=fixed;fillColor=#647687;strokeColor=#314354;fontColor=#ffffff;" parent="B7eyNhPYpgDCMDLuY0uI-1" vertex="1">
                    <mxGeometry x="580" y="127.57679656440365" width="30" height="30" as="geometry"/>
                </mxCell>
                <mxCell id="B7eyNhPYpgDCMDLuY0uI-28" value="left" style="endArrow=none;html=1;exitX=1;exitY=0;exitDx=0;exitDy=0;" parent="B7eyNhPYpgDCMDLuY0uI-1" source="B7eyNhPYpgDCMDLuY0uI-27" target="B7eyNhPYpgDCMDLuY0uI-24" edge="1">
                    <mxGeometry width="50" height="50" relative="1" as="geometry">
                        <mxPoint x="640" y="188.78679656440366" as="sourcePoint"/>
                        <mxPoint x="628.7833982822018" y="110.00000000000003" as="targetPoint"/>
                    </mxGeometry>
                </mxCell>
                <mxCell id="B7eyNhPYpgDCMDLuY0uI-29" value="4" style="ellipse;whiteSpace=wrap;html=1;aspect=fixed;fillColor=#647687;strokeColor=#314354;fontColor=#ffffff;" parent="B7eyNhPYpgDCMDLuY0uI-1" vertex="1">
                    <mxGeometry x="671.21" y="128.79000000000002" width="28.79" height="28.79" as="geometry"/>
                </mxCell>
                <mxCell id="B7eyNhPYpgDCMDLuY0uI-30" value="right" style="endArrow=none;html=1;" parent="B7eyNhPYpgDCMDLuY0uI-1" source="B7eyNhPYpgDCMDLuY0uI-29" target="B7eyNhPYpgDCMDLuY0uI-24" edge="1">
                    <mxGeometry width="50" height="50" relative="1" as="geometry">
                        <mxPoint x="690" y="258.78679656440363" as="sourcePoint"/>
                        <mxPoint x="653.78" y="120.00000000000003" as="targetPoint"/>
                    </mxGeometry>
                </mxCell>
                <mxCell id="B7eyNhPYpgDCMDLuY0uI-31" value="5" style="ellipse;whiteSpace=wrap;html=1;aspect=fixed;fillColor=#647687;fontColor=#ffffff;strokeColor=#314354;" parent="B7eyNhPYpgDCMDLuY0uI-1" vertex="1">
                    <mxGeometry x="690" y="32.00000000000003" width="30" height="30" as="geometry"/>
                </mxCell>
                <mxCell id="B7eyNhPYpgDCMDLuY0uI-32" value="left" style="endArrow=none;html=1;" parent="B7eyNhPYpgDCMDLuY0uI-1" source="B7eyNhPYpgDCMDLuY0uI-24" target="B7eyNhPYpgDCMDLuY0uI-31" edge="1">
                    <mxGeometry width="50" height="50" relative="1" as="geometry">
                        <mxPoint x="656.8266017177982" y="84.39019484660548" as="sourcePoint"/>
                        <mxPoint x="700.0033982822018" y="60.00000000000003" as="targetPoint"/>
                    </mxGeometry>
                </mxCell>
            </root>
        </mxGraphModel>
    </diagram>
    <diagram id="Phhi_9FGUo6bmAAnFujb" name="Page-4">
        <mxGraphModel dx="434" dy="510" grid="1" gridSize="10" guides="1" tooltips="1" connect="1" arrows="1" fold="1" page="1" pageScale="1" pageWidth="827" pageHeight="1169" math="0" shadow="0">
            <root>
                <mxCell id="AOuCZjv-5HLiOr41Iy7S-0"/>
                <mxCell id="AOuCZjv-5HLiOr41Iy7S-1" parent="AOuCZjv-5HLiOr41Iy7S-0"/>
                <mxCell id="AOuCZjv-5HLiOr41Iy7S-2" value="3_5" style="ellipse;whiteSpace=wrap;html=1;aspect=fixed;" parent="AOuCZjv-5HLiOr41Iy7S-1" vertex="1">
                    <mxGeometry x="188.77999999999997" y="80.00000000000003" width="30" height="30" as="geometry"/>
                </mxCell>
                <mxCell id="AOuCZjv-5HLiOr41Iy7S-3" value="8_9" style="ellipse;whiteSpace=wrap;html=1;aspect=fixed;" parent="AOuCZjv-5HLiOr41Iy7S-1" vertex="1">
                    <mxGeometry x="259.99679656440355" y="128.78679656440366" width="30" height="30" as="geometry"/>
                </mxCell>
                <mxCell id="AOuCZjv-5HLiOr41Iy7S-4" value="right" style="endArrow=none;html=1;exitX=0;exitY=0;exitDx=0;exitDy=0;" parent="AOuCZjv-5HLiOr41Iy7S-1" source="AOuCZjv-5HLiOr41Iy7S-3" target="AOuCZjv-5HLiOr41Iy7S-2" edge="1">
                    <mxGeometry width="50" height="50" relative="1" as="geometry">
                        <mxPoint x="337.5667965644036" y="208.78679656440366" as="sourcePoint"/>
                        <mxPoint x="218.77999999999997" y="110.00000000000003" as="targetPoint"/>
                    </mxGeometry>
                </mxCell>
                <mxCell id="AOuCZjv-5HLiOr41Iy7S-5" value="2" style="ellipse;whiteSpace=wrap;html=1;aspect=fixed;fillColor=#647687;strokeColor=#314354;fontColor=#ffffff;" parent="AOuCZjv-5HLiOr41Iy7S-1" vertex="1">
                    <mxGeometry x="120" y="129.99679656440364" width="30" height="30" as="geometry"/>
                </mxCell>
                <mxCell id="AOuCZjv-5HLiOr41Iy7S-6" value="left" style="endArrow=none;html=1;exitX=1;exitY=0;exitDx=0;exitDy=0;" parent="AOuCZjv-5HLiOr41Iy7S-1" source="AOuCZjv-5HLiOr41Iy7S-5" target="AOuCZjv-5HLiOr41Iy7S-2" edge="1">
                    <mxGeometry width="50" height="50" relative="1" as="geometry">
                        <mxPoint x="200" y="188.78679656440366" as="sourcePoint"/>
                        <mxPoint x="188.7833982822018" y="110.00000000000003" as="targetPoint"/>
                    </mxGeometry>
                </mxCell>
                <mxCell id="AOuCZjv-5HLiOr41Iy7S-7" value="4" style="ellipse;whiteSpace=wrap;html=1;aspect=fixed;fillColor=#647687;strokeColor=#314354;fontColor=#ffffff;" parent="AOuCZjv-5HLiOr41Iy7S-1" vertex="1">
                    <mxGeometry x="188.77999999999997" y="130.00000000000003" width="28.79" height="28.79" as="geometry"/>
                </mxCell>
                <mxCell id="AOuCZjv-5HLiOr41Iy7S-8" value="middle" style="endArrow=none;html=1;entryX=0.5;entryY=1;entryDx=0;entryDy=0;" parent="AOuCZjv-5HLiOr41Iy7S-1" source="AOuCZjv-5HLiOr41Iy7S-7" target="AOuCZjv-5HLiOr41Iy7S-2" edge="1">
                    <mxGeometry width="50" height="50" relative="1" as="geometry">
                        <mxPoint x="250" y="258.78679656440363" as="sourcePoint"/>
                        <mxPoint x="213.77999999999997" y="120.00000000000003" as="targetPoint"/>
                    </mxGeometry>
                </mxCell>
                <mxCell id="AOuCZjv-5HLiOr41Iy7S-9" value="3" style="ellipse;whiteSpace=wrap;html=1;aspect=fixed;fillColor=#f8cecc;strokeColor=#b85450;" parent="AOuCZjv-5HLiOr41Iy7S-1" vertex="1">
                    <mxGeometry x="378.78" y="80.00000000000003" width="30" height="30" as="geometry"/>
                </mxCell>
                <mxCell id="AOuCZjv-5HLiOr41Iy7S-10" value="9" style="ellipse;whiteSpace=wrap;html=1;aspect=fixed;fillColor=#647687;fontColor=#ffffff;strokeColor=#314354;" parent="AOuCZjv-5HLiOr41Iy7S-1" vertex="1">
                    <mxGeometry x="529.9967965644036" y="127.99679656440367" width="30" height="30" as="geometry"/>
                </mxCell>
                <mxCell id="AOuCZjv-5HLiOr41Iy7S-11" value="right" style="endArrow=none;html=1;exitX=0;exitY=0;exitDx=0;exitDy=0;" parent="AOuCZjv-5HLiOr41Iy7S-1" source="AOuCZjv-5HLiOr41Iy7S-10" target="AOuCZjv-5HLiOr41Iy7S-16" edge="1">
                    <mxGeometry width="50" height="50" relative="1" as="geometry">
                        <mxPoint x="537.5667965644036" y="258.78679656440363" as="sourcePoint"/>
                        <mxPoint x="418.78" y="160.00000000000003" as="targetPoint"/>
                    </mxGeometry>
                </mxCell>
                <mxCell id="AOuCZjv-5HLiOr41Iy7S-12" value="2" style="ellipse;whiteSpace=wrap;html=1;aspect=fixed;fillColor=#647687;strokeColor=#314354;fontColor=#ffffff;" parent="AOuCZjv-5HLiOr41Iy7S-1" vertex="1">
                    <mxGeometry x="330" y="127.57679656440364" width="30" height="30" as="geometry"/>
                </mxCell>
                <mxCell id="AOuCZjv-5HLiOr41Iy7S-13" value="left" style="endArrow=none;html=1;exitX=1;exitY=0;exitDx=0;exitDy=0;" parent="AOuCZjv-5HLiOr41Iy7S-1" source="AOuCZjv-5HLiOr41Iy7S-12" target="AOuCZjv-5HLiOr41Iy7S-9" edge="1">
                    <mxGeometry width="50" height="50" relative="1" as="geometry">
                        <mxPoint x="390" y="188.78679656440366" as="sourcePoint"/>
                        <mxPoint x="378.7833982822018" y="110.00000000000003" as="targetPoint"/>
                    </mxGeometry>
                </mxCell>
                <mxCell id="AOuCZjv-5HLiOr41Iy7S-14" value="4" style="ellipse;whiteSpace=wrap;html=1;aspect=fixed;fillColor=#647687;strokeColor=#314354;fontColor=#ffffff;" parent="AOuCZjv-5HLiOr41Iy7S-1" vertex="1">
                    <mxGeometry x="421.21" y="128.79000000000002" width="28.79" height="28.79" as="geometry"/>
                </mxCell>
                <mxCell id="AOuCZjv-5HLiOr41Iy7S-15" value="right" style="endArrow=none;html=1;" parent="AOuCZjv-5HLiOr41Iy7S-1" source="AOuCZjv-5HLiOr41Iy7S-14" target="AOuCZjv-5HLiOr41Iy7S-9" edge="1">
                    <mxGeometry width="50" height="50" relative="1" as="geometry">
                        <mxPoint x="440" y="258.78679656440363" as="sourcePoint"/>
                        <mxPoint x="403.78" y="120.00000000000003" as="targetPoint"/>
                    </mxGeometry>
                </mxCell>
                <mxCell id="AOuCZjv-5HLiOr41Iy7S-16" value="5" style="ellipse;whiteSpace=wrap;html=1;aspect=fixed;fillColor=#647687;fontColor=#ffffff;strokeColor=#314354;" parent="AOuCZjv-5HLiOr41Iy7S-1" vertex="1">
                    <mxGeometry x="460" y="80.00000000000003" width="30" height="30" as="geometry"/>
                </mxCell>
                <mxCell id="AOuCZjv-5HLiOr41Iy7S-17" value="left" style="endArrow=none;html=1;" parent="AOuCZjv-5HLiOr41Iy7S-1" source="AOuCZjv-5HLiOr41Iy7S-9" target="AOuCZjv-5HLiOr41Iy7S-16" edge="1">
                    <mxGeometry width="50" height="50" relative="1" as="geometry">
                        <mxPoint x="406.8266017177982" y="84.39019484660548" as="sourcePoint"/>
                        <mxPoint x="450.00339828220183" y="60.00000000000003" as="targetPoint"/>
                    </mxGeometry>
                </mxCell>
                <mxCell id="AOuCZjv-5HLiOr41Iy7S-18" value="3" style="ellipse;whiteSpace=wrap;html=1;aspect=fixed;fillColor=#f8cecc;strokeColor=#b85450;" parent="AOuCZjv-5HLiOr41Iy7S-1" vertex="1">
                    <mxGeometry x="628.78" y="80.00000000000003" width="30" height="30" as="geometry"/>
                </mxCell>
                <mxCell id="AOuCZjv-5HLiOr41Iy7S-19" value="9" style="ellipse;whiteSpace=wrap;html=1;aspect=fixed;fillColor=#647687;fontColor=#ffffff;strokeColor=#314354;" parent="AOuCZjv-5HLiOr41Iy7S-1" vertex="1">
                    <mxGeometry x="765.9967965644036" y="79.99679656440367" width="30" height="30" as="geometry"/>
                </mxCell>
                <mxCell id="AOuCZjv-5HLiOr41Iy7S-20" value="right" style="endArrow=none;html=1;exitX=0;exitY=0;exitDx=0;exitDy=0;" parent="AOuCZjv-5HLiOr41Iy7S-1" source="AOuCZjv-5HLiOr41Iy7S-19" target="AOuCZjv-5HLiOr41Iy7S-25" edge="1">
                    <mxGeometry width="50" height="50" relative="1" as="geometry">
                        <mxPoint x="767.5667965644036" y="210.78679656440363" as="sourcePoint"/>
                        <mxPoint x="648.78" y="112.00000000000003" as="targetPoint"/>
                    </mxGeometry>
                </mxCell>
                <mxCell id="AOuCZjv-5HLiOr41Iy7S-21" value="2" style="ellipse;whiteSpace=wrap;html=1;aspect=fixed;fillColor=#647687;strokeColor=#314354;fontColor=#ffffff;" parent="AOuCZjv-5HLiOr41Iy7S-1" vertex="1">
                    <mxGeometry x="580" y="127.57679656440365" width="30" height="30" as="geometry"/>
                </mxCell>
                <mxCell id="AOuCZjv-5HLiOr41Iy7S-22" value="left" style="endArrow=none;html=1;exitX=1;exitY=0;exitDx=0;exitDy=0;" parent="AOuCZjv-5HLiOr41Iy7S-1" source="AOuCZjv-5HLiOr41Iy7S-21" target="AOuCZjv-5HLiOr41Iy7S-18" edge="1">
                    <mxGeometry width="50" height="50" relative="1" as="geometry">
                        <mxPoint x="640" y="188.78679656440366" as="sourcePoint"/>
                        <mxPoint x="628.7833982822018" y="110.00000000000003" as="targetPoint"/>
                    </mxGeometry>
                </mxCell>
                <mxCell id="AOuCZjv-5HLiOr41Iy7S-23" value="4" style="ellipse;whiteSpace=wrap;html=1;aspect=fixed;fillColor=#647687;strokeColor=#314354;fontColor=#ffffff;" parent="AOuCZjv-5HLiOr41Iy7S-1" vertex="1">
                    <mxGeometry x="671.21" y="128.79000000000002" width="28.79" height="28.79" as="geometry"/>
                </mxCell>
                <mxCell id="AOuCZjv-5HLiOr41Iy7S-24" value="right" style="endArrow=none;html=1;" parent="AOuCZjv-5HLiOr41Iy7S-1" source="AOuCZjv-5HLiOr41Iy7S-23" target="AOuCZjv-5HLiOr41Iy7S-18" edge="1">
                    <mxGeometry width="50" height="50" relative="1" as="geometry">
                        <mxPoint x="690" y="258.78679656440363" as="sourcePoint"/>
                        <mxPoint x="653.78" y="120.00000000000003" as="targetPoint"/>
                    </mxGeometry>
                </mxCell>
                <mxCell id="AOuCZjv-5HLiOr41Iy7S-25" value="5" style="ellipse;whiteSpace=wrap;html=1;aspect=fixed;fillColor=#647687;fontColor=#ffffff;strokeColor=#314354;" parent="AOuCZjv-5HLiOr41Iy7S-1" vertex="1">
                    <mxGeometry x="690" y="32.00000000000003" width="30" height="30" as="geometry"/>
                </mxCell>
                <mxCell id="AOuCZjv-5HLiOr41Iy7S-26" value="left" style="endArrow=none;html=1;" parent="AOuCZjv-5HLiOr41Iy7S-1" source="AOuCZjv-5HLiOr41Iy7S-18" target="AOuCZjv-5HLiOr41Iy7S-25" edge="1">
                    <mxGeometry width="50" height="50" relative="1" as="geometry">
                        <mxPoint x="656.8266017177982" y="84.39019484660548" as="sourcePoint"/>
                        <mxPoint x="700.0033982822018" y="60.00000000000003" as="targetPoint"/>
                    </mxGeometry>
                </mxCell>
                <mxCell id="AOuCZjv-5HLiOr41Iy7S-27" value="8" style="ellipse;whiteSpace=wrap;html=1;aspect=fixed;fillColor=#f8cecc;strokeColor=#b85450;" parent="AOuCZjv-5HLiOr41Iy7S-1" vertex="1">
                    <mxGeometry x="460" y="128.99679656440364" width="30" height="30" as="geometry"/>
                </mxCell>
                <mxCell id="AOuCZjv-5HLiOr41Iy7S-28" value="left" style="endArrow=none;html=1;" parent="AOuCZjv-5HLiOr41Iy7S-1" source="AOuCZjv-5HLiOr41Iy7S-27" target="AOuCZjv-5HLiOr41Iy7S-10" edge="1">
                    <mxGeometry width="50" height="50" relative="1" as="geometry">
                        <mxPoint x="520" y="238.35679656440365" as="sourcePoint"/>
                        <mxPoint x="530" y="143" as="targetPoint"/>
                    </mxGeometry>
                </mxCell>
                <mxCell id="AOuCZjv-5HLiOr41Iy7S-29" value="8" style="ellipse;whiteSpace=wrap;html=1;aspect=fixed;fillColor=#f8cecc;strokeColor=#b85450;" parent="AOuCZjv-5HLiOr41Iy7S-1" vertex="1">
                    <mxGeometry x="716.85" y="127.99679656440364" width="30" height="30" as="geometry"/>
                </mxCell>
                <mxCell id="AOuCZjv-5HLiOr41Iy7S-30" value="left" style="endArrow=none;html=1;exitX=1;exitY=0;exitDx=0;exitDy=0;" parent="AOuCZjv-5HLiOr41Iy7S-1" source="AOuCZjv-5HLiOr41Iy7S-29" target="AOuCZjv-5HLiOr41Iy7S-19" edge="1">
                    <mxGeometry width="50" height="50" relative="1" as="geometry">
                        <mxPoint x="776.85" y="189.20679656440365" as="sourcePoint"/>
                        <mxPoint x="779.9934995464902" y="103.03914935380598" as="targetPoint"/>
                    </mxGeometry>
                </mxCell>
            </root>
        </mxGraphModel>
    </diagram>
    <diagram id="il2mJxUuVkhR9ZuhW-5b" name="Page-5">
        <mxGraphModel dx="434" dy="510" grid="1" gridSize="10" guides="1" tooltips="1" connect="1" arrows="1" fold="1" page="1" pageScale="1" pageWidth="827" pageHeight="1169" math="0" shadow="0">
            <root>
                <mxCell id="YBmtICZm2bIBcnyZhPyv-0"/>
                <mxCell id="YBmtICZm2bIBcnyZhPyv-1" parent="YBmtICZm2bIBcnyZhPyv-0"/>
                <mxCell id="YBmtICZm2bIBcnyZhPyv-2" value="2" style="ellipse;whiteSpace=wrap;html=1;aspect=fixed;fillColor=#647687;fontColor=#ffffff;strokeColor=#314354;" vertex="1" parent="YBmtICZm2bIBcnyZhPyv-1">
                    <mxGeometry x="320" y="190" width="30" height="30" as="geometry"/>
                </mxCell>
                <mxCell id="YBmtICZm2bIBcnyZhPyv-3" value="3" style="ellipse;whiteSpace=wrap;html=1;aspect=fixed;fillColor=#647687;strokeColor=#314354;fontColor=#ffffff;" vertex="1" parent="YBmtICZm2bIBcnyZhPyv-1">
                    <mxGeometry x="368.78679656440363" y="238.78679656440363" width="30" height="30" as="geometry"/>
                </mxCell>
                <mxCell id="YBmtICZm2bIBcnyZhPyv-4" value="" style="endArrow=none;html=1;exitX=0;exitY=0;exitDx=0;exitDy=0;" edge="1" parent="YBmtICZm2bIBcnyZhPyv-1" source="YBmtICZm2bIBcnyZhPyv-3" target="YBmtICZm2bIBcnyZhPyv-2">
                    <mxGeometry width="50" height="50" relative="1" as="geometry">
                        <mxPoint x="468.78679656440363" y="318.78679656440363" as="sourcePoint"/>
                        <mxPoint x="350" y="220" as="targetPoint"/>
                    </mxGeometry>
                </mxCell>
                <mxCell id="YBmtICZm2bIBcnyZhPyv-5" value="1" style="ellipse;whiteSpace=wrap;html=1;aspect=fixed;fillColor=#647687;fontColor=#ffffff;strokeColor=#314354;" vertex="1" parent="YBmtICZm2bIBcnyZhPyv-1">
                    <mxGeometry x="271.22" y="238.78679656440363" width="30" height="30" as="geometry"/>
                </mxCell>
                <mxCell id="YBmtICZm2bIBcnyZhPyv-6" value="" style="endArrow=none;html=1;exitX=1;exitY=0;exitDx=0;exitDy=0;" edge="1" parent="YBmtICZm2bIBcnyZhPyv-1" source="YBmtICZm2bIBcnyZhPyv-5" target="YBmtICZm2bIBcnyZhPyv-2">
                    <mxGeometry width="50" height="50" relative="1" as="geometry">
                        <mxPoint x="331.22" y="298.78679656440363" as="sourcePoint"/>
                        <mxPoint x="320.00339828220183" y="220" as="targetPoint"/>
                    </mxGeometry>
                </mxCell>
            </root>
        </mxGraphModel>
    </diagram>
</mxfile>